SpiffSans.ufo
<glyph name="quotedbl" format="2">
  <advance width="700"/>
  <unicode hex="0022"/>
  <outline>
    <contour>
      <point x="0" y="600" type="line"/>
      <point x="0" y="1000" type="line"/>
      <point x="200" y="1000" type="line"/>
      <point x="200" y="600" type="line"/>
    </contour>
    <contour>
      <point x="400" y="600" type="line"/>
      <point x="400" y="1000" type="line"/>
      <point x="600" y="1000" type="line"/>
      <point x="600" y="600" type="line"/>
    </contour>
  </outline>
</glyph>
<glyph name="plus" format="2">
  <advance width="700"/>
  <unicode hex="002B"/>
  <outline>
    <contour>
      <point x="200" y="200" type="line"/>
      <point x="200" y="400" type="line"/>
      <point x="0" y="400" type="line"/>
      <point x="0" y="600" type="line"/>
      <point x="200" y="600" type="line"/>
      <point x="200" y="800" type="line"/>
      <point x="400" y="800" type="line"/>
      <point x="400" y="600" type="line"/>
      <point x="600" y="600" type="line"/>
      <point x="600" y="400" type="line"/>
      <point x="400" y="400" type="line"/>
      <point x="400" y="200" type="line"/>
    </contour>
  </outline>
</glyph>
<glyph name="comma" format="2">
  <advance width="300"/>
  <unicode hex="002C"/>
  <outline>
    <contour>
      <point x="0" y="-200" type="line"/>
      <point x="0" y="200" type="line"/>
      <point x="200" y="200" type="line"/>
      <point x="200" y="-200" type="line"/>
    </contour>
  </outline>
</glyph>
<glyph name="hyphen" format="2">
  <advance width="500"/>
  <unicode hex="002D"/>
  <outline>
    <contour>
      <point x="0" y="400" type="line"/>
      <point x="0" y="600" type="line"/>
      <point x="400" y="600" type="line"/>
      <point x="400" y="400" type="line"/>
    </contour>
  </outline>
</glyph>
<glyph name="period" format="2">
  <advance width="300"/>
  <unicode hex="002E"/>
  <outline>
    <contour>
      <point x="0" y="0" type="line"/>
      <point x="0" y="200" type="line"/>
      <point x="200" y="200" type="line"/>
      <point x="200" y="0" type="line"/>
    </contour>
  </outline>
</glyph>
<glyph name="one" format="2">
  <advance width="600"/>
  <unicode hex="0031"/>
  <outline>
    <contour>
      <point x="0" y="0" type="line"/>
      <point x="0" y="200" type="line"/>
      <point x="200" y="200" type="line"/>
      <point x="200" y="700" type="line"/>
      <point x="0" y="700" type="line"/>
      <point x="200" y="1000" type="line"/>
      <point x="400" y="1000" type="line"/>
      <point x="400" y="200" type="line"/>
      <point x="500" y="200" type="line"/>
      <point x="500" y="0" type="line"/>
    </contour>
  </outline>
</glyph>
<glyph name="two" format="2">
  <advance width="700"/>
  <unicode hex="0032"/>
  <outline>
    <contour>
      <point x="0" y="0" type="line"/>
      <point x="0" y="200" type="line"/>
      <point x="400" y="600" type="line"/>
      <point x="400" y="800" type="line"/>
      <point x="200" y="800" type="line"/>
      <point x="200" y="600" type="line"/>
      <point x="0" y="600" type="line"/>
      <point x="0" y="800" type="line"/>
      <point x="100" y="1000" type="line"/>
      <point x="500" y="1000" type="line"/>
      <point x="600" y="800" type="line"/>
      <point x="600" y="550" type="line"/>
      <point x="250" y="200" type="line"/>
      <point x="600" y="200" type="line"/>
      <point x="600" y="0" type="line"/>
    </contour>
  </outline>
</glyph>
<glyph name="five" format="2">
  <advance width="700"/>
  <unicode hex="0035"/>
  <outline>
    <contour>
      <point x="0" y="0" type="line"/>
      <point x="0" y="200" type="line"/>
      <point x="400" y="200" type="line"/>
      <point x="450" y="300" type="line"/>
      <point x="400" y="400" type="line"/>
      <point x="0" y="400" type="line"/>
      <point x="0" y="1000" type="line"/>
      <point x="600" y="1000" type="line"/>
      <point x="600" y="800" type="line"/>
      <point x="200" y="800" type="line"/>
      <point x="200" y="600" type="line"/>
      <point x="500" y="600" type="line"/>
      <point x="600" y="400" type="line"/>
      <point x="600" y="200" type="line"/>
      <point x="500" y="0" type="line"/>
    </contour>
  </outline>
</glyph>
<glyph name="six" format="2">
  <advance width="700"/>
  <unicode hex="0036"/>
  <outline>
    <contour>
      <point x="100" y="0" type="line"/>
      <point x="0" y="200" type="line"/>
      <point x="0" y="800" type="line"/>
      <point x="100" y="1000" type="line"/>
      <point x="500" y="1000" type="line"/>
      <point x="550" y="800" type="line"/>
      <point x="200" y="800" type="line"/>
      <point x="200" y="600" type="line"/>
      <point x="500" y="600" type="line"/>
      <point x="600" y="400" type="line"/>
      <point x="600" y="200" type="line"/>
      <point x="500" y="0" type="line"/>
    </contour>
    <contour>
      <point x="200" y="200" type="line"/>
      <point x="400" y="200" type="line"/>
      <point x="400" y="400" type="line"/>
      <point x="200" y="400" type="line"/>
    </contour>
  </outline>
</glyph>
<glyph name="seven" format="2">
  <advance width="600"/>
  <unicode hex="0037"/>
  <outline>
    <contour>
      <point x="100" y="0" type="line"/>
      <point x="100" y="300" type="line"/>
      <point x="300" y="800" type="line"/>
      <point x="0" y="800" type="line"/>
      <point x="0" y="1000" type="line"/>
      <point x="500" y="1000" type="line"/>
      <point x="500" y="800" type="line"/>
      <point x="300" y="300" type="line"/>
      <point x="300" y="0" type="line"/>
    </contour>
  </outline>
</glyph>
<glyph name="colon" format="2">
  <advance width="300"/>
  <unicode hex="003A"/>
  <outline>
    <contour>
      <point x="0" y="600" type="line"/>
      <point x="0" y="800" type="line"/>
      <point x="200" y="800" type="line"/>
      <point x="200" y="600" type="line"/>
    </contour>
    <contour>
      <point x="0" y="0" type="line"/>
      <point x="0" y="200" type="line"/>
      <point x="200" y="200" type="line"/>
      <point x="200" y="0" type="line"/>
    </contour>
  </outline>
</glyph>
<glyph name="semicolon" format="2">
  <advance width="300"/>
  <unicode hex="003B"/>
  <outline>
    <contour>
      <point x="0" y="600" type="line"/>
      <point x="0" y="800" type="line"/>
      <point x="200" y="800" type="line"/>
      <point x="200" y="600" type="line"/>
    </contour>
    <contour>
      <point x="0" y="-200" type="line"/>
      <point x="0" y="200" type="line"/>
      <point x="200" y="200" type="line"/>
      <point x="200" y="-200" type="line"/>
    </contour>
  </outline>
</glyph>
<glyph name="equal" format="2">
  <advance width="500"/>
  <unicode hex="003D"/>
  <outline>
    <contour>
      <point x="0" y="600" type="line"/>
      <point x="0" y="800" type="line"/>
      <point x="400" y="800" type="line"/>
      <point x="400" y="600" type="line"/>
    </contour>
    <contour>
      <point x="0" y="200" type="line"/>
      <point x="0" y="400" type="line"/>
      <point x="400" y="400" type="line"/>
      <point x="400" y="200" type="line"/>
    </contour>
  </outline>
</glyph>
<glyph name="A" format="2">
  <advance width="700"/>
  <unicode hex="0041"/>
  <unicode hex="0061"/>
  <outline>
    <contour>
      <point x="0" y="0" type="line"/>
      <point x="0" y="800" type="line"/>
      <point x="100" y="1000" type="line"/>
      <point x="500" y="1000" type="line"/>
      <point x="600" y="800" type="line"/>
      <point x="600" y="0" type="line"/>
      <point x="400" y="0" type="line"/>
      <point x="400" y="400" type="line"/>
      <point x="200" y="400" type="line"/>
      <point x="200" y="0" type="line"/>
    </contour>
    <contour>
      <point x="200" y="600" type="line"/>
      <point x="400" y="600" type="line"/>
      <point x="400" y="800" type="line"/>
      <point x="200" y="800" type="line"/>
    </contour>
  </outline>
</glyph>
<glyph name="C" format="2">
  <advance width="700"/>
  <unicode hex="0043"/>
  <unicode hex="0063"/>
  <outline>
    <contour>
      <point x="600" y="0" type="line"/>
      <point x="100" y="0" type="line"/>
      <point x="0" y="200" type="line"/>
      <point x="0" y="800" type="line"/>
      <point x="100" y="1000" type="line"/>
      <point x="600" y="1000" type="line"/>
      <point x="600" y="800" type="line"/>
      <point x="200" y="800" type="line"/>
      <point x="200" y="200" type="line"/>
      <point x="600" y="200" type="line"/>
    </contour>
  </outline>
</glyph>
<glyph name="D" format="2">
  <advance width="700"/>
  <unicode hex="0044"/>
  <unicode hex="0064"/>
  <outline>
    <contour>
      <point x="0" y="0" type="line"/>
      <point x="0" y="1000" type="line"/>
      <point x="500" y="1000" type="line"/>
      <point x="600" y="800" type="line"/>
      <point x="600" y="200" type="line"/>
      <point x="500" y="0" type="line"/>
    </contour>
    <contour>
      <point x="200" y="200" type="line"/>
      <point x="400" y="200" type="line"/>
      <point x="400" y="800" type="line"/>
      <point x="200" y="800" type="line"/>
    </contour>
  </outline>
</glyph>
<glyph name="E" format="2">
  <advance width="600"/>
  <unicode hex="0045"/>
  <unicode hex="0065"/>
  <outline>
    <contour>
      <point x="0" y="0" type="line"/>
      <point x="0" y="1000" type="line"/>
      <point x="500" y="1000" type="line"/>
      <point x="500" y="800" type="line"/>
      <point x="200" y="800" type="line"/>
      <point x="200" y="600" type="line"/>
      <point x="400" y="600" type="line"/>
      <point x="400" y="400" type="line"/>
      <point x="200" y="400" type="line"/>
      <point x="200" y="200" type="line"/>
      <point x="500" y="200" type="line"/>
      <point x="500" y="0" type="line"/>
    </contour>
  </outline>
</glyph>
<glyph name="F" format="2">
  <advance width="600"/>
  <unicode hex="0046"/>
  <unicode hex="0066"/>
  <outline>
    <contour>
      <point x="0" y="0" type="line"/>
      <point x="0" y="1000" type="line"/>
      <point x="500" y="1000" type="line"/>
      <point x="500" y="800" type="line"/>
      <point x="200" y="800" type="line"/>
      <point x="200" y="600" type="line"/>
      <point x="400" y="600" type="line"/>
      <point x="400" y="400" type="line"/>
      <point x="200" y="400" type="line"/>
      <point x="200" y="0" type="line"/>
    </contour>
  </outline>
</glyph>
<glyph name="G" format="2">
  <advance width="700"/>
  <unicode hex="0047"/>
  <unicode hex="0067"/>
  <outline>
    <contour>
      <point x="600" y="0" type="line"/>
      <point x="100" y="0" type="line"/>
      <point x="0" y="200" type="line"/>
      <point x="0" y="800" type="line"/>
      <point x="100" y="1000" type="line"/>
      <point x="550" y="1000" type="line"/>
      <point x="600" y="800" type="line"/>
      <point x="200" y="800" type="line"/>
      <point x="200" y="200" type="line"/>
      <point x="400" y="200" type="line"/>
      <point x="400" y="600" type="line"/>
      <point x="600" y="600" type="line"/>
    </contour>
  </outline>
</glyph>
<glyph name="H" format="2">
  <advance width="700"/>
  <unicode hex="0048"/>
  <unicode hex="0068"/>
  <outline>
    <contour>
      <point x="0" y="0" type="line"/>
      <point x="0" y="1000" type="line"/>
      <point x="200" y="1000" type="line"/>
      <point x="200" y="600" type="line"/>
      <point x="400" y="600" type="line"/>
      <point x="400" y="1000" type="line"/>
      <point x="600" y="1000" type="line"/>
      <point x="600" y="0" type="line"/>
      <point x="400" y="0" type="line"/>
      <point x="400" y="400" type="line"/>
      <point x="200" y="400" type="line"/>
      <point x="200" y="0" type="line"/>
    </contour>
  </outline>
</glyph>
<glyph name="I" format="2">
  <advance width="600"/>
  <unicode hex="0049"/>
  <unicode hex="0069"/>
  <outline>
    <contour>
      <point x="0" y="0" type="line"/>
      <point x="0" y="200" type="line"/>
      <point x="150" y="200" type="line"/>
      <point x="150" y="800" type="line"/>
      <point x="0" y="800" type="line"/>
      <point x="0" y="1000" type="line"/>
      <point x="500" y="1000" type="line"/>
      <point x="500" y="800" type="line"/>
      <point x="350" y="800" type="line"/>
      <point x="350" y="200" type="line"/>
      <point x="500" y="200" type="line"/>
      <point x="500" y="0" type="line"/>
    </contour>
  </outline>
</glyph>
<glyph name="J" format="2">
  <advance width="700"/>
  <unicode hex="004A"/>
  <unicode hex="006A"/>
  <outline>
    <contour>
      <point x="50" y="0" type="line"/>
      <point x="0" y="100" type="line"/>
      <point x="0" y="400" type="line"/>
      <point x="200" y="400" type="line"/>
      <point x="200" y="200" type="line"/>
      <point x="400" y="200" type="line"/>
      <point x="400" y="800" type="line"/>
      <point x="0" y="800" type="line"/>
      <point x="0" y="1000" type="line"/>
      <point x="600" y="1000" type="line"/>
      <point x="600" y="100" type="line"/>
      <point x="550" y="0" type="line"/>
    </contour>
  </outline>
</glyph>
<glyph name="K" format="2">
  <advance width="700"/>
  <unicode hex="004B"/>
  <unicode hex="006B"/>
  <outline>
    <contour>
      <point x="0" y="0" type="line"/>
      <point x="0" y="1000" type="line"/>
      <point x="200" y="1000" type="line"/>
      <point x="200" y="600" type="line"/>
      <point x="400" y="600" type="line"/>
      <point x="400" y="1000" type="line"/>
      <point x="600" y="1000" type="line"/>
      <point x="600" y="600" type="line"/>
      <point x="500" y="500" type="line"/>
      <point x="600" y="400" type="line"/>
      <point x="600" y="0" type="line"/>
      <point x="400" y="0" type="line"/>
      <point x="400" y="400" type="line"/>
      <point x="200" y="400" type="line"/>
      <point x="200" y="0" type="line"/>
    </contour>
  </outline>
</glyph>
<glyph name="L" format="2">
  <advance width="600"/>
  <unicode hex="004C"/>
  <unicode hex="006C"/>
  <outline>
    <contour>
      <point x="0" y="0" type="line"/>
      <point x="0" y="1000" type="line"/>
      <point x="200" y="1000" type="line"/>
      <point x="200" y="200" type="line"/>
      <point x="500" y="200" type="line"/>
      <point x="500" y="0" type="line"/>
    </contour>
  </outline>
</glyph>
<glyph name="M" format="2">
  <advance width="1100"/>
  <unicode hex="004D"/>
  <unicode hex="006D"/>
  <outline>
    <contour>
      <point x="0" y="0" type="line"/>
      <point x="0" y="800" type="line"/>
      <point x="100" y="1000" type="line"/>
      <point x="900" y="1000" type="line"/>
      <point x="1000" y="800" type="line"/>
      <point x="1000" y="0" type="line"/>
      <point x="800" y="0" type="line"/>
      <point x="800" y="800" type="line"/>
      <point x="600" y="800" type="line"/>
      <point x="600" y="0" type="line"/>
      <point x="400" y="0" type="line"/>
      <point x="400" y="800" type="line"/>
      <point x="200" y="800" type="line"/>
      <point x="200" y="0" type="line"/>
    </contour>
  </outline>
</glyph>
<glyph name="N" format="2">
  <advance width="700"/>
  <unicode hex="004E"/>
  <unicode hex="006E"/>
  <outline>
    <contour>
      <point x="0" y="0" type="line"/>
      <point x="0" y="800" type="line"/>
      <point x="100" y="1000" type="line"/>
      <point x="500" y="1000" type="line"/>
      <point x="600" y="800" type="line"/>
      <point x="600" y="0" type="line"/>
      <point x="400" y="0" type="line"/>
      <point x="400" y="800" type="line"/>
      <point x="200" y="800" type="line"/>
      <point x="200" y="0" type="line"/>
    </contour>
  </outline>
</glyph>
<glyph name="O" format="2">
  <advance width="700"/>
  <unicode hex="004F"/>
  <unicode hex="006F"/>
  <outline>
    <contour>
      <point x="500" y="0" type="line"/>
      <point x="100" y="0" type="line"/>
      <point x="0" y="200" type="line"/>
      <point x="0" y="800" type="line"/>
      <point x="100" y="1000" type="line"/>
      <point x="500" y="1000" type="line"/>
      <point x="600" y="800" type="line"/>
      <point x="600" y="200" type="line"/>
    </contour>
    <contour>
      <point x="200" y="200" type="line"/>
      <point x="400" y="200" type="line"/>
      <point x="400" y="800" type="line"/>
      <point x="200" y="800" type="line"/>
    </contour>
  </outline>
</glyph>
<glyph name="P" format="2">
  <advance width="700"/>
  <unicode hex="0050"/>
  <unicode hex="0070"/>
  <outline>
    <contour>
      <point x="0" y="0" type="line"/>
      <point x="0" y="1000" type="line"/>
      <point x="500" y="1000" type="line"/>
      <point x="600" y="800" type="line"/>
      <point x="600" y="600" type="line"/>
      <point x="500" y="400" type="line"/>
      <point x="200" y="400" type="line"/>
      <point x="200" y="0" type="line"/>
    </contour>
    <contour>
      <point x="200" y="600" type="line"/>
      <point x="400" y="600" type="line"/>
      <point x="400" y="800" type="line"/>
      <point x="200" y="800" type="line"/>
    </contour>
  </outline>
</glyph>
<glyph name="Q" format="2">
  <advance width="700"/>
  <unicode hex="0051"/>
  <unicode hex="0071"/>
  <outline>
    <contour>
      <point x="100" y="0" type="line"/>
      <point x="0" y="200" type="line"/>
      <point x="0" y="800" type="line"/>
      <point x="100" y="1000" type="line"/>
      <point x="500" y="1000" type="line"/>
      <point x="600" y="800" type="line"/>
      <point x="600" y="0" type="line"/>
    </contour>
    <contour>
      <point x="200" y="200" type="line"/>
      <point x="400" y="200" type="line"/>
      <point x="400" y="800" type="line"/>
      <point x="200" y="800" type="line"/>
    </contour>
  </outline>
</glyph>
<glyph name="R" format="2">
  <advance width="700"/>
  <unicode hex="0052"/>
  <unicode hex="0072"/>
  <outline>
    <contour>
      <point x="0" y="0" type="line"/>
      <point x="0" y="1000" type="line"/>
      <point x="500" y="1000" type="line"/>
      <point x="600" y="800" type="line"/>
      <point x="600" y="600" type="line"/>
      <point x="550" y="500" type="line"/>
      <point x="600" y="400" type="line"/>
      <point x="600" y="0" type="line"/>
      <point x="400" y="0" type="line"/>
      <point x="400" y="400" type="line"/>
      <point x="200" y="400" type="line"/>
      <point x="200" y="0" type="line"/>
    </contour>
    <contour>
      <point x="200" y="600" type="line"/>
      <point x="400" y="600" type="line"/>
      <point x="400" y="800" type="line"/>
      <point x="200" y="800" type="line"/>
    </contour>
  </outline>
</glyph>
<glyph name="S" format="2">
  <advance width="700"/>
  <unicode hex="0053"/>
  <unicode hex="0073"/>
  <outline>
    <contour>
      <point x="100" y="0" type="line"/>
      <point x="0" y="200" type="line"/>
      <point x="0" y="300" type="line"/>
      <point x="200" y="300" type="line"/>
      <point x="200" y="200" type="line"/>
      <point x="400" y="200" type="line"/>
      <point x="400" y="400" type="line"/>
      <point x="100" y="400" type="line"/>
      <point x="0" y="500" type="line"/>
      <point x="0" y="800" type="line"/>
      <point x="100" y="1000" type="line"/>
      <point x="500" y="1000" type="line"/>
      <point x="600" y="800" type="line"/>
      <point x="600" y="700" type="line"/>
      <point x="400" y="700" type="line"/>
      <point x="400" y="800" type="line"/>
      <point x="200" y="800" type="line"/>
      <point x="200" y="600" type="line"/>
      <point x="500" y="600" type="line"/>
      <point x="600" y="500" type="line"/>
      <point x="600" y="200" type="line"/>
      <point x="500" y="0" type="line"/>
    </contour>
  </outline>
</glyph>
<glyph name="T" format="2">
  <advance width="700"/>
  <unicode hex="0054"/>
  <unicode hex="0074"/>
  <outline>
    <contour>
      <point x="200" y="0" type="line"/>
      <point x="200" y="800" type="line"/>
      <point x="0" y="800" type="line"/>
      <point x="0" y="1000" type="line"/>
      <point x="600" y="1000" type="line"/>
      <point x="600" y="800" type="line"/>
      <point x="400" y="800" type="line"/>
      <point x="400" y="0" type="line"/>
    </contour>
  </outline>
</glyph>
<glyph name="U" format="2">
  <advance width="700"/>
  <unicode hex="0055"/>
  <unicode hex="0075"/>
  <outline>
    <contour>
      <point x="100" y="0" type="line"/>
      <point x="0" y="200" type="line"/>
      <point x="0" y="1000" type="line"/>
      <point x="200" y="1000" type="line"/>
      <point x="200" y="200" type="line"/>
      <point x="400" y="200" type="line"/>
      <point x="400" y="1000" type="line"/>
      <point x="600" y="1000" type="line"/>
      <point x="600" y="200" type="line"/>
      <point x="500" y="0" type="line"/>
    </contour>
  </outline>
</glyph>
<glyph name="V" format="2">
  <advance width="700"/>
  <unicode hex="0056"/>
  <unicode hex="0076"/>
  <outline>
    <contour>
      <point x="200" y="0" type="line"/>
      <point x="0" y="400" type="line"/>
      <point x="0" y="1000" type="line"/>
      <point x="200" y="1000" type="line"/>
      <point x="200" y="400" type="line"/>
      <point x="400" y="400" type="line"/>
      <point x="400" y="1000" type="line"/>
      <point x="600" y="1000" type="line"/>
      <point x="600" y="400" type="line"/>
      <point x="400" y="0" type="line"/>
    </contour>
  </outline>
</glyph>
<glyph name="W" format="2">
  <advance width="1100"/>
  <unicode hex="0057"/>
  <unicode hex="0077"/>
  <outline>
    <contour>
      <point x="900" y="0" type="line"/>
      <point x="100" y="0" type="line"/>
      <point x="0" y="200" type="line"/>
      <point x="0" y="1000" type="line"/>
      <point x="200" y="1000" type="line"/>
      <point x="200" y="200" type="line"/>
      <point x="400" y="200" type="line"/>
      <point x="400" y="1000" type="line"/>
      <point x="600" y="1000" type="line"/>
      <point x="600" y="200" type="line"/>
      <point x="800" y="200" type="line"/>
      <point x="800" y="1000" type="line"/>
      <point x="1000" y="1000" type="line"/>
      <point x="1000" y="200" type="line"/>
    </contour>
  </outline>
</glyph>
<glyph name="X" format="2">
  <advance width="700"/>
  <unicode hex="0058"/>
  <unicode hex="0078"/>
  <outline>
    <contour>
      <point x="0" y="0" type="line"/>
      <point x="0" y="400" type="line"/>
      <point x="100" y="500" type="line"/>
      <point x="0" y="600" type="line"/>
      <point x="0" y="1000" type="line"/>
      <point x="200" y="1000" type="line"/>
      <point x="200" y="600" type="line"/>
      <point x="400" y="600" type="line"/>
      <point x="400" y="1000" type="line"/>
      <point x="600" y="1000" type="line"/>
      <point x="600" y="600" type="line"/>
      <point x="500" y="500" type="line"/>
      <point x="600" y="400" type="line"/>
      <point x="600" y="0" type="line"/>
      <point x="400" y="0" type="line"/>
      <point x="400" y="400" type="line"/>
      <point x="200" y="400" type="line"/>
      <point x="200" y="0" type="line"/>
    </contour>
  </outline>
</glyph>
<glyph name="Y" format="2">
  <advance width="700"/>
  <unicode hex="0059"/>
  <unicode hex="0079"/>
  <outline>
    <contour>
      <point x="200" y="0" type="line"/>
      <point x="200" y="400" type="line"/>
      <point x="100" y="400" type="line"/>
      <point x="0" y="600" type="line"/>
      <point x="0" y="1000" type="line"/>
      <point x="200" y="1000" type="line"/>
      <point x="200" y="600" type="line"/>
      <point x="400" y="600" type="line"/>
      <point x="400" y="1000" type="line"/>
      <point x="600" y="1000" type="line"/>
      <point x="600" y="600" type="line"/>
      <point x="500" y="400" type="line"/>
      <point x="400" y="400" type="line"/>
      <point x="400" y="0" type="line"/>
    </contour>
  </outline>
</glyph>
<glyph name="Z" format="2">
  <advance width="600"/>
  <unicode hex="005A"/>
  <unicode hex="007A"/>
  <outline>
    <contour>
      <point x="0" y="0" type="line"/>
      <point x="0" y="200" type="line"/>
      <point x="300" y="800" type="line"/>
      <point x="0" y="800" type="line"/>
      <point x="0" y="1000" type="line"/>
      <point x="500" y="1000" type="line"/>
      <point x="500" y="800" type="line"/>
      <point x="200" y="200" type="line"/>
      <point x="500" y="200" type="line"/>
      <point x="500" y="0" type="line"/>
    </contour>
  </outline>
</glyph>
<glyph name="backslash" format="2">
  <advance width="700"/>
  <unicode hex="005C"/>
  <outline>
    <contour>
      <point x="400" y="0" type="line"/>
      <point x="0" y="1000" type="line"/>
      <point x="200" y="1000" type="line"/>
      <point x="600" y="0" type="line"/>
    </contour>
  </outline>
</glyph>
<glyph name="underscore" format="2">
  <advance width="700"/>
  <unicode hex="005F"/>
  <outline>
    <contour>
      <point x="0" y="0" type="line"/>
      <point x="0" y="200" type="line"/>
      <point x="600" y="200" type="line"/>
      <point x="600" y="0" type="line"/>
    </contour>
  </outline>
</glyph>
<glyph name="grave" format="2">
  <advance width="500"/>
  <unicode hex="0060"/>
  <outline>
    <contour>
      <point x="200" y="600" type="line"/>
      <point x="0" y="1000" type="line"/>
      <point x="200" y="1000" type="line"/>
      <point x="400" y="600" type="line"/>
    </contour>
  </outline>
</glyph>
<glyph name="notdef" format="2">
  <advance width="1100"/>
  <unicode hex="FFFD"/>
  <outline>
    <contour>
      <point x="0" y="500" type="line"/>
      <point x="500" y="1000" type="line"/>
      <point x="1000" y="500" type="line"/>
      <point x="500" y="0" type="line"/>
    </contour>
    <contour>
      <point x="450" y="800" type="line"/>
      <point x="325" y="675" type="line"/>
      <point x="325" y="600" type="line"/>
      <point x="425" y="600" type="line"/>
      <point x="425" y="650" type="line"/>
      <point x="475" y="700" type="line"/>
      <point x="525" y="700" type="line"/>
      <point x="575" y="650" type="line"/>
      <point x="575" y="600" type="line"/>
      <point x="450" y="475" type="line"/>
      <point x="450" y="375" type="line"/>
      <point x="550" y="375" type="line"/>
      <point x="550" y="450" type="line"/>
      <point x="675" y="575" type="line"/>
      <point x="675" y="675" type="line"/>
      <point x="550" y="800" type="line"/>
    </contour>
    <contour>
      <point x="450" y="300" type="line"/>
      <point x="450" y="200" type="line"/>
      <point x="550" y="200" type="line"/>
      <point x="550" y="300" type="line"/>
    </contour>
  </outline>
</glyph>
